<svg width="64" height="64" viewBox="0 0 64 64" fill="none" xmlns="http://www.w3.org/2000/svg">
  <!-- Background circle with gradient -->
  <circle cx="32" cy="32" r="30" fill="url(#bgGradient)" stroke="url(#borderGradient)" stroke-width="2"/>
  
  <!-- Central letter "c" -->
  <path d="M32 16C41.941 16 50 24.059 50 34C50 43.941 41.941 52 32 52C22.059 52 14 43.941 14 34C14 24.059 22.059 16 32 16Z" stroke="url(#textGradient)" stroke-width="4" fill="none" stroke-linecap="round" stroke-dasharray="30 8"/>
  
  <!-- Futuristic accent rings -->
  <circle cx="32" cy="32" r="20" stroke="url(#accentGradient)" stroke-width="1" fill="none" opacity="0.6"/>
  <circle cx="32" cy="32" r="25" stroke="url(#accentGradient)" stroke-width="0.5" fill="none" opacity="0.3"/>
  
  <!-- Orbital dots -->
  <circle cx="52" cy="32" r="2" fill="url(#dotGradient)">
    <animateTransform attributeName="transform" type="rotate" values="0 32 32;360 32 32" dur="8s" repeatCount="indefinite"/>
  </circle>
  <circle cx="12" cy="32" r="1.5" fill="url(#dotGradient)" opacity="0.8">
    <animateTransform attributeName="transform" type="rotate" values="0 32 32;-360 32 32" dur="12s" repeatCount="indefinite"/>
  </circle>
  
  <!-- Gradients -->
  <defs>
    <radialGradient id="bgGradient" cx="0.3" cy="0.3" r="0.8">
      <stop offset="0%" stop-color="#1a1a2e"/>
      <stop offset="50%" stop-color="#16213e"/>
      <stop offset="100%" stop-color="#0f0f23"/>
    </radialGradient>
    
    <linearGradient id="borderGradient" x1="0" y1="0" x2="1" y2="1">
      <stop offset="0%" stop-color="#ffd700"/>
      <stop offset="50%" stop-color="#9333ea"/>
      <stop offset="100%" stop-color="#06b6d4"/>
    </linearGradient>
    
    <linearGradient id="textGradient" x1="0" y1="0" x2="1" y2="0">
      <stop offset="0%" stop-color="#ffd700"/>
      <stop offset="50%" stop-color="#ffffff"/>
      <stop offset="100%" stop-color="#06b6d4"/>
    </linearGradient>
    
    <linearGradient id="accentGradient" x1="0" y1="0" x2="1" y2="1">
      <stop offset="0%" stop-color="#9333ea" stop-opacity="0.8"/>
      <stop offset="100%" stop-color="#06b6d4" stop-opacity="0.4"/>
    </linearGradient>
    
    <radialGradient id="dotGradient" cx="0.5" cy="0.5" r="0.5">
      <stop offset="0%" stop-color="#ffd700"/>
      <stop offset="100%" stop-color="#ff8c00"/>
    </radialGradient>
  </defs>
</svg>